<svg width="18" height="17" viewBox="0 0 18 17" fill="none" xmlns="http://www.w3.org/2000/svg">
<path d="M7.915 0.704136C8.22018 -0.235086 9.54893 -0.235086 9.8541 0.704135L11.2526 5.0082C11.3891 5.42824 11.7805 5.71262 12.2221 5.71262H16.7477C17.7353 5.71262 18.1459 6.97634 17.3469 7.55681L13.6857 10.2169C13.3284 10.4765 13.1788 10.9366 13.3153 11.3566L14.7138 15.6607C15.019 16.5999 13.944 17.3809 13.145 16.8005L9.48376 14.1404C9.12646 13.8808 8.64264 13.8808 8.28534 14.1404L4.62406 16.8005C3.82511 17.3809 2.75013 16.5999 3.0553 15.6607L4.45378 11.3566C4.59026 10.9366 4.44075 10.4765 4.08345 10.2169L0.422186 7.55681C-0.376768 6.97634 0.0338363 5.71262 1.0214 5.71262H5.54697C5.98862 5.71262 6.38004 5.42824 6.51652 5.00821L7.915 0.704136Z" fill="#FF5722"/>
</svg>
